#!OML:ASF F:\VICON\USERDATA\INSTALL\rory3\rory3.ASF
:FULLY-SPECIFIED
:DEGREES
99
root 0.560887929353646 17.763828118656903 42.42314148515467 -2.018614691153932 -0.699678646884609 2.498282001189889
lfemur 5.91430966162889 -2.9912714051828964 -27.47332532380784
ltibia 17.01484655029877
lfoot -14.934585931329323 1.6376001096817367
ltoes -1.5781484863137132
rfemur -28.33951822044552 3.437918915417878 17.674247412486668
rtibia 29.79054000119438
rfoot -9.692466962109133 -14.776487634736394
rtoes -0.7294237600418074
lowerback 9.614402388152865 -0.5915415218221475 -3.8211491760497633
upperback 0.6709982794029101 -1.165940113107434 0.8921557647326028
thorax -4.646663923107871 -0.49431755105562036 3.065830371558423
lowerneck -16.58977774762206 -2.7881030920872187 -3.401707324197472
upperneck 20.295998111875644 -3.547058940150929 2.0996474718726987
head 9.175103930286568 -1.6777858884055372 0.7857679498256985
lclavicle -2.2617951121830628e-15 6.229925064109896e-16
lhumerus -21.89938604979922 -4.642087136552056 82.33609910586877
lradius 27.125277161423487
lwrist 7.451663325608742
lhand -27.853983041319673 22.40249105738509
lfingers 7.12502
lthumb -1.2449075298361474 52.37382660109439
rclavicle -2.2617951121830628e-15 6.229925064109898e-16
rhumerus -29.892726042402817 -17.028163389046377 -80.44988907918675
rradius 25.79430298447131
rwrist 5.410269654387234
rhand -16.73363234167209 23.304471629276634
rfingers 7.12502
rthumb 9.492302802870645 -6.458350006187628
100
root 0.4886152900890363 17.715956830024343 42.46407092185393 -1.6570167308661101 -0.22803008582270623 2.6345705570572737
lfemur 8.392201892167417 -3.131838092740711 -27.576578265369903
ltibia 14.822452638780177
lfoot -15.020060705389149 0.9259623069949028
ltoes -3.934058650446507
rfemur -28.125616602010986 4.767400891707009 16.833008103698162
rtibia 23.191865448080208
rfoot -9.921947750866986 -15.655944604974811
rtoes -1.9155989558839983
lowerback 9.411717940766666 -0.8306779033444894 -4.266091875201474
upperback 0.5905163085238165 -1.5197390209223567 0.9582926229291334
thorax -4.594747442016463 -0.6614013807310244 3.34325933792667
lowerneck -16.696067715502807 -2.791184516529842 -3.406507460351929
upperneck 20.31067077563187 -3.5547450097820343 2.1261257834988663
head 9.195053795630635 -1.6788528394083608 0.7891408817107824
lclavicle -2.5114588948092138e-15 3.927578201904521e-16
lhumerus -20.75629643642059 -5.416550016447856 82.21335461878884
lradius 28.15324375305985
lwrist 7.890251672487709
lhand -28.144754683278077 22.092778192955898
lfingers 7.12502
lthumb -1.525731063551866 52.060623627836435
rclavicle -2.5114588948092138e-15 3.927578201904521e-16
rhumerus -30.380120589607635 -17.954497046292826 -80.00448318616698
rradius 25.011543463911913
rwrist 6.08520497219387
rhand -16.821723309475782 23.695029941260252
rfingers 7.12502
rthumb 9.407305573364932 -6.071433529727305
101
root 0.42493328851545675 17.668582413113267 43.10113496468723 -1.4643307122578468 0.16585173656994945 2.652536046418811
lfemur 10.757799163311702 -3.5340862094396464 -27.31078666258004
ltibia 14.797055649010833
lfoot -14.52734865083826 0.311411883749358
ltoes -6.856527946184466
rfemur -27.591293577251726 5.441200366985172 16.9434648036303
rtibia 20.817090054386618
rfoot -9.507166744131972 -14.631063454126446
rtoes -2.401641038505129
lowerback 9.3123484478477 -0.9656693346492878 -4.323785542074875
upperback 0.5433645206844842 -1.6970485295416968 1.1102389837956905
thorax -4.560635075922324 -0.7472431556925008 3.5921089211725823
lowerneck -16.783088498784036 -2.777499407309384 -3.3683865643125106
upperneck 20.39133064497506 -3.53081182746781 2.084840626708714
head 9.236516821935608 -1.6707605689340925 0.774159638562509
lclavicle -2.258355005700514e-15 6.257693879462299e-16
lhumerus -19.885178673787355 -5.5947495397222555 82.22518195110662
lradius 29.0390257461545
lwrist 8.131968073047481
lhand -28.6005297326802 21.637502453287716
lfingers 7.12502
lthumb -1.965896336270029 51.60006459410746
rclavicle -2.258355005700514e-15 6.257693879462299e-16
rhumerus -30.813681035184445 -19.10345263470497 -79.24789330429869
rradius 24.17831989895178
rwrist 7.164393184745636
rhand -16.954887434171443 23.94262912402613
rfingers 7.12502
rthumb 9.278820429321184 -5.831359274456607
102
root 0.36427400110568614 17.627031196151698 43.63722272839737 -1.477160273065567 0.2905626805972972 2.330497501441274
lfemur 12.106162696136149 -4.179342313471928 -26.95100011436635
ltibia 16.294500411950914
lfoot -13.5010757489873 -0.649900457456129
ltoes -10.18426323890415
rfemur -27.532964162759605 5.349603682879398 17.713098361652282
rtibia 21.57042148059724
rfoot -8.562357694055658 -12.38276315334522
rtoes -2.217728611316034
lowerback 9.281928044780823 -1.0742377788494304 -4.152110499796045
upperback 0.515019560533226 -1.8132585569067006 1.3080293608904368
thorax -4.565234140056065 -0.8062220155910904 3.688061159017923
lowerneck -16.85493213056826 -2.744559395452693 -3.324456968867157
upperneck 20.507333786077528 -3.471645089663478 1.9320865398568339
head 9.281811453701941 -1.652368881647003 0.7329280635864618
lclavicle -2.2953352168831668e-15 5.919428498334183e-16
lhumerus -19.594648371825798 -5.475856079723329 82.34629816548728
lradius 29.679933473755003
lwrist 8.170015487747182
lhand -29.192860818949445 21.01046955765783
lfingers 7.12502
lthumb -2.5379383376878395 50.96668365110816
rclavicle -2.2953352168831668e-15 5.919428498334182e-16
rhumerus -31.348405697599787 -20.532073619374472 -78.39701001243026
rradius 23.276857551484984
rwrist 8.375628826865922
rhand -17.116633217799986 23.950385701661176
rfingers 7.12502
rthumb 9.122758901586133 -5.831507259580611
